PathFileType	4	(X/Y/Z)	 s10c0202.trc
DataRate	CameraRate	NumFrames	NumMarkers	Units	OrigDataRate	OrigDataStartFrame	OrigNumFrames
200	200	4	50	mm	200	1501	2000
Frame#	Time	racr			lacr			c7			jug			rlel			rdr			llel			ldr			s2			lic			ric			lasi			rasi			rpsi			lpsi			rgt			lgt			rth1			rth2			rth3			rth4			rlfc			rmfc			rsh1			rsh2			rsh3			rsh4			rlmal			rmmal			rcal			rtoe			rmt5			lth1			lth2			lth4			lth3			llfc			lmfc			llmal			lmmal			lcal			lmt5			lsh1			lsh2			lsh3			lsh4			ltoe			SBIKE			LBIKE			RBIKE			
		X1	Y1	Z1	X2	Y2	Z2	X3	Y3	Z3	X4	Y4	Z4	X5	Y5	Z5	X6	Y6	Z6	X7	Y7	Z7	X8	Y8	Z8	X9	Y9	Z9	X10	Y10	Z10	X11	Y11	Z11	X12	Y12	Z12	X13	Y13	Z13	X14	Y14	Z14	X15	Y15	Z15	X16	Y16	Z16	X17	Y17	Z17	X18	Y18	Z18	X19	Y19	Z19	X20	Y20	Z20	X21	Y21	Z21	X22	Y22	Z22	X23	Y23	Z23	X24	Y24	Z24	X25	Y25	Z25	X26	Y26	Z26	X27	Y27	Z27	X28	Y28	Z28	X29	Y29	Z29	X30	Y30	Z30	X31	Y31	Z31	X32	Y32	Z32	X33	Y33	Z33	X34	Y34	Z34	X35	Y35	Z35	X36	Y36	Z36	X37	Y37	Z37	X38	Y38	Z38	X39	Y39	Z39	X40	Y40	Z40	X41	Y41	Z41	X42	Y42	Z42	X43	Y43	Z43	X44	Y44	Z44	X45	Y45	Z45	X46	Y46	Z46	X47	Y47	Z47	X48	Y48	Z48	X49	Y49	Z49	X50	Y50	Z50	
1501	7.5050	412.494259	1289.837428	-0.402816	480.894711	1302.296447	-284.152878	406.857889	1323.204054	-158.508315	425.643829	1180.935810	-150.235334	413.557140	1025.829196	73.653024	600.303224	916.537796	0.705652	482.982230	1064.560952	-445.727103	632.663209	911.234914	-390.969993	-96.640412	1104.434602	-223.585377	75.590143	1118.444964	-379.328994	60.894562	1131.093985	-88.515010	102.104039	1035.285582	-349.692426	90.105860	1053.203622	-91.333701	-56.915244	1165.433603	-176.994283	-47.845841	1174.087178	-286.490538	-9.696065	1032.308208	-36.644597	-34.169189	985.061474	-411.109485	101.814368	941.654684	-10.646469	188.005739	923.262297	-21.149223	251.592131	866.105579	-18.161000	202.485230	955.602768	-33.975044	353.249274	807.121121	-35.735114	348.074765	789.919704	-153.972083	297.211084	703.144655	-12.869725	295.311584	615.061269	-26.218076	251.090678	541.235929	-32.255495	325.906022	610.182023	-50.140322	218.355473	443.199609	-47.287804	247.394430	459.961962	-123.760882	168.250004	420.918922	-94.682888	408.385733	395.102001	-77.271399	322.474399	368.070096	-19.860275	46.071362	875.195903	-427.507293	122.105027	833.332473	-421.478188	147.145259	859.845319	-418.217015	167.504642	757.172243	-411.033552	244.914516	670.385054	-394.024392	255.271709	669.379512	-273.747925	-26.198615	408.768790	-379.281254	-9.398341	397.520939	-300.279534	-87.478542	408.246036	-334.736568	26.718856	271.860809	-397.624847	150.169141	592.804542	-421.621906	113.615327	514.982072	-401.138670	40.292727	464.839354	-395.642621	136.887163	501.242498	-375.076771	109.663694	248.310560	-338.605367	-204.449958	832.945629	-224.689590	-78.193846	81.734116	-423.631151	-102.685568	80.537216	-24.408983	
1502	7.5100	412.913829	1289.764649	-1.038179	480.366069	1303.000081	-284.680417	406.572035	1323.471542	-158.822043	425.766390	1181.221959	-150.988995	413.385509	1025.895542	72.238341	600.333784	916.282448	0.534116	483.298807	1064.950322	-445.890093	632.938144	911.333288	-391.925843	-97.453307	1105.185825	-224.487661	75.637373	1118.369095	-379.304956	61.840986	1129.887265	-87.695329	102.272623	1035.034701	-349.517072	90.273989	1051.638795	-91.445136	-57.333505	1164.382380	-177.484074	-48.003188	1173.216789	-286.568766	-10.640994	1029.006257	-37.947329	-32.218178	984.859020	-412.364138	99.896081	935.759642	-10.971320	185.926457	915.489852	-21.024593	248.130989	856.778084	-18.802790	201.314441	947.985198	-32.755820	348.634963	794.065955	-36.058355	344.545981	778.300626	-153.477950	293.343117	689.735225	-12.910013	293.002484	601.575077	-26.432339	250.148638	527.073874	-32.394020	323.858488	597.196262	-50.101751	219.401362	430.752065	-47.238363	249.825173	447.943938	-124.278059	169.357562	408.112309	-94.654609	409.943058	385.316120	-77.046145	324.326260	357.100056	-19.735663	49.366025	876.104277	-427.890853	126.004500	835.427751	-421.502897	150.614314	862.327964	-418.085874	172.510104	760.043958	-410.726605	251.317373	674.113800	-393.143209	259.685281	673.915368	-272.024838	-25.399497	419.707398	-379.347387	-9.354672	408.282781	-300.266227	-86.860575	420.437237	-335.012094	24.801164	281.945071	-397.721540	156.366246	599.424960	-421.316382	117.492262	522.035547	-400.614230	42.830565	473.768931	-395.458325	139.797430	507.887066	-373.644777	107.364362	256.989864	-338.642062	-204.457638	832.933568	-224.723162	-78.192231	81.727703	-423.622343	-102.696120	80.502116	-24.426502	
1503	7.5150	413.401407	1289.677104	-1.752045	479.832535	1303.721936	-285.411157	406.230715	1323.722948	-159.226863	425.984951	1181.514586	-151.850685	413.356767	1025.734668	70.719974	600.436072	916.115177	0.346038	483.517748	1065.260801	-446.237245	633.115984	911.464145	-392.763636	-98.099897	1103.718861	-225.192118	75.661345	1118.188733	-379.270738	62.207418	1128.008884	-87.588551	102.429579	1034.686400	-349.231202	90.391829	1049.610243	-91.563508	-57.940195	1162.637527	-177.550186	-48.132294	1171.948525	-286.810976	-11.792410	1025.543763	-38.889198	-30.190298	984.375092	-413.503561	98.265278	929.952888	-11.350130	183.907695	907.969992	-20.907232	244.649907	847.184933	-19.763187	199.890533	939.438658	-32.296625	343.587430	780.973023	-36.712817	340.901040	766.805555	-153.078844	288.271190	677.824292	-12.457106	289.938058	589.548534	-26.083201	248.687769	514.170757	-31.995155	321.343123	585.769981	-49.210179	220.049770	418.499107	-47.165030	250.299077	436.881906	-123.824979	170.483109	394.856340	-95.157194	411.073507	375.115297	-76.816460	325.796124	345.945566	-19.741141	52.939086	876.992602	-428.006367	130.163351	837.605108	-421.366494	154.319359	864.755961	-417.732882	177.683674	762.925088	-410.169463	257.714401	677.970427	-392.327836	263.831466	678.673955	-270.119694	-23.593676	430.683585	-379.549608	-8.221640	419.265850	-300.383312	-85.312098	432.976587	-335.275577	23.576938	292.252827	-397.878557	162.174789	606.050722	-420.495236	121.749170	529.427445	-400.111261	45.976814	482.726164	-395.374222	143.452510	514.915631	-372.762847	105.617710	265.750359	-338.629069	-204.494501	832.918097	-224.814597	-78.203255	81.705103	-423.622000	-102.678373	80.502153	-24.418786	
1504	7.5200	413.954321	1289.474178	-2.604496	479.252222	1304.352465	-286.223040	405.929714	1323.980752	-159.809844	425.982148	1181.775245	-152.990960	413.499081	1025.601211	69.394054	600.553085	915.885428	0.093045	483.628158	1065.512979	-446.737842	633.204929	911.637732	-393.372774	-99.205220	1101.263429	-224.696450	75.658730	1117.821643	-379.122553	62.598424	1126.010837	-87.450678	102.467451	1034.130783	-348.781012	90.439367	1047.559471	-91.526478	-58.601448	1160.715135	-177.526888	-48.373073	1170.545615	-286.880281	-12.628940	1020.859846	-40.123246	-28.050563	983.725882	-414.605002	96.280423	922.947451	-11.629674	181.482240	898.968677	-20.750542	240.979304	837.618999	-20.233202	198.549156	931.263449	-31.098709	338.253517	768.709582	-37.089117	337.126827	755.633417	-152.938165	283.033335	667.430436	-12.222408	286.324870	578.975599	-25.515379	246.250617	503.106099	-31.604558	318.110756	575.542968	-48.028302	220.306838	406.256787	-47.001218	250.563182	424.872939	-123.814731	170.959153	382.770959	-95.022331	411.713926	364.654211	-76.701300	326.689132	334.771852	-19.707277	56.707921	877.830476	-428.476895	134.615893	839.905360	-421.505765	158.015476	867.002300	-416.355720	183.189542	765.824957	-409.389206	264.197378	682.148927	-391.529654	267.590923	682.933556	-268.637218	-21.069338	441.752188	-379.605201	-6.438028	430.203173	-300.364333	-82.940123	445.513841	-335.477985	22.921286	302.428627	-397.934989	167.612957	613.080185	-419.217202	126.352834	536.943626	-399.340042	49.427653	492.275596	-395.743021	147.675538	522.326768	-372.124222	104.499764	274.452159	-338.663524	-204.485104	832.909346	-224.867168	-78.195672	81.735036	-423.648457	-102.700069	80.515978	-24.427032	
